# xmcd
#
# Track frame offsets:
#	150
#	18579
#	39933
#	55182
#	73287
#	84551
#	104992
#	123536
#	140417
#	160868
#	168000
#	187743
#
# Disc length: 2686
#
# Revision: 5
# Processed by: cddbd v1.5.1PL0 Copyright (c) Steve Scherf et al.
# Submitted via: CDex 1.50
# Normalized: r4:DSETVAR1
#
DISCID=a10a7c0c
DTITLE=Various Artist - Sister Act 2: Back In The Habit
DYEAR=1900
DGENRE=
TTITLE0=Whoopi and The Ronelles - The Greatest Medley Ever Told
TTITLE1=Hi - Five
TTITLE2=Whoopi and The Sisters - Get Up Offa That Thing - Dancing In The Street
TTITLE3=The St. Francis Choir feat. Ryan Toby - Oh Happy Day
TTITLE4=Whoopi and The Sisters - Ball Of Confusion (That's What The World Is Today)
TTITLE5=Tanya Blount and Lauryn Hill - His Eye Is On The Sparrow
TTITLE6=Aretha Franklin - A Deeper Love
TTITLE7=Nuttin' Nyce - Wandering Eyes
TTITLE8=Valeria Andrews and Ryan Toby - Pay Attention
TTITLE9=The Chapman College Choir - Ode To Joy
TTITLE10=The ST. Francis Choir feat. Lauryn Hill, Ryan Toby, Devin Kamin and Ron Johnson - Joyful, Joyful
TTITLE11=Whoopi and The Cast - Ain't No Mountain High Enough
EXTD=
EXTT0=
EXTT1=
EXTT2=
EXTT3=
EXTT4=
EXTT5=
EXTT6=
EXTT7=
EXTT8=
EXTT9=
EXTT10=
EXTT11=
PLAYORDER=
